<mxfile host="app.diagrams.net" modified="2022-07-25T01:03:39.862Z" agent="5.0 (Windows NT 10.0; Win64; x64) AppleWebKit/537.36 (KHTML, like Gecko) Chrome/103.0.0.0 Safari/537.36" etag="_j8WoGERAPtVGLb5W7Gk" version="20.1.3" type="github">
  <diagram id="wFqJ9D_wtZ_qf9VDlLL7" name="第 1 页">
    <mxGraphModel dx="1422" dy="762" grid="1" gridSize="10" guides="1" tooltips="1" connect="1" arrows="1" fold="1" page="1" pageScale="1" pageWidth="827" pageHeight="1169" math="0" shadow="0">
      <root>
        <mxCell id="0" />
        <mxCell id="1" parent="0" />
        <mxCell id="w1ihY2law0qxPt3G3yZp-1" value="&lt;font style=&quot;font-size: 17px;&quot;&gt;多租户&lt;/font&gt;" style="rounded=1;whiteSpace=wrap;html=1;" vertex="1" parent="1">
          <mxGeometry x="70" y="410" width="120" height="60" as="geometry" />
        </mxCell>
        <mxCell id="w1ihY2law0qxPt3G3yZp-22" style="edgeStyle=orthogonalEdgeStyle;rounded=0;orthogonalLoop=1;jettySize=auto;html=1;exitX=0.5;exitY=1;exitDx=0;exitDy=0;fontSize=16;" edge="1" parent="1" source="w1ihY2law0qxPt3G3yZp-2" target="w1ihY2law0qxPt3G3yZp-7">
          <mxGeometry relative="1" as="geometry" />
        </mxCell>
        <mxCell id="w1ihY2law0qxPt3G3yZp-2" value="&lt;font style=&quot;font-size: 17px;&quot;&gt;分账&lt;/font&gt;" style="rounded=1;whiteSpace=wrap;html=1;" vertex="1" parent="1">
          <mxGeometry x="220" y="410" width="120" height="60" as="geometry" />
        </mxCell>
        <mxCell id="w1ihY2law0qxPt3G3yZp-3" value="&lt;font style=&quot;font-size: 17px;&quot;&gt;线上结算&lt;/font&gt;" style="rounded=1;whiteSpace=wrap;html=1;" vertex="1" parent="1">
          <mxGeometry x="395" y="410" width="120" height="60" as="geometry" />
        </mxCell>
        <mxCell id="w1ihY2law0qxPt3G3yZp-4" value="&lt;h1&gt;20220723需求&lt;/h1&gt;&lt;div&gt;&lt;div&gt;多租户，跟药店进行线上结算，处方的流转要根据开方医生的经济人所关联的药店作为依据&lt;/div&gt;&lt;/div&gt;&lt;div&gt;&lt;br&gt;&lt;/div&gt;" style="text;html=1;strokeColor=none;fillColor=none;spacing=5;spacingTop=-20;whiteSpace=wrap;overflow=hidden;rounded=0;fontSize=17;" vertex="1" parent="1">
          <mxGeometry x="450" y="200" width="240" height="170" as="geometry" />
        </mxCell>
        <mxCell id="w1ihY2law0qxPt3G3yZp-7" value="&lt;font style=&quot;font-size: 16px;&quot;&gt;代理商区域药店&lt;/font&gt;" style="rounded=1;whiteSpace=wrap;html=1;fontSize=17;" vertex="1" parent="1">
          <mxGeometry x="220" y="540" width="120" height="60" as="geometry" />
        </mxCell>
        <mxCell id="w1ihY2law0qxPt3G3yZp-9" value="对接第三方系统&lt;br&gt;流转处方" style="rounded=1;whiteSpace=wrap;html=1;fontSize=16;" vertex="1" parent="1">
          <mxGeometry x="610" y="410" width="120" height="60" as="geometry" />
        </mxCell>
        <mxCell id="w1ihY2law0qxPt3G3yZp-16" style="edgeStyle=orthogonalEdgeStyle;rounded=0;orthogonalLoop=1;jettySize=auto;html=1;fontSize=16;" edge="1" parent="1" source="w1ihY2law0qxPt3G3yZp-15" target="w1ihY2law0qxPt3G3yZp-1">
          <mxGeometry relative="1" as="geometry" />
        </mxCell>
        <mxCell id="w1ihY2law0qxPt3G3yZp-15" value="代理商独立运营" style="shape=note2;boundedLbl=1;whiteSpace=wrap;html=1;size=25;verticalAlign=top;align=center;fontSize=16;" vertex="1" parent="1">
          <mxGeometry x="70" y="540" width="120" height="60" as="geometry" />
        </mxCell>
        <mxCell id="w1ihY2law0qxPt3G3yZp-21" style="edgeStyle=orthogonalEdgeStyle;rounded=0;orthogonalLoop=1;jettySize=auto;html=1;entryX=0.575;entryY=1.05;entryDx=0;entryDy=0;entryPerimeter=0;fontSize=16;" edge="1" parent="1" source="w1ihY2law0qxPt3G3yZp-17" target="w1ihY2law0qxPt3G3yZp-3">
          <mxGeometry relative="1" as="geometry" />
        </mxCell>
        <mxCell id="w1ihY2law0qxPt3G3yZp-17" value="通联是否支持分账&amp;amp;结算？" style="shape=note2;boundedLbl=1;whiteSpace=wrap;html=1;size=25;verticalAlign=top;align=center;fontSize=16;" vertex="1" parent="1">
          <mxGeometry x="370" y="540" width="190" height="60" as="geometry" />
        </mxCell>
        <mxCell id="w1ihY2law0qxPt3G3yZp-20" style="edgeStyle=orthogonalEdgeStyle;rounded=0;orthogonalLoop=1;jettySize=auto;html=1;fontSize=16;" edge="1" parent="1" source="w1ihY2law0qxPt3G3yZp-19" target="w1ihY2law0qxPt3G3yZp-9">
          <mxGeometry relative="1" as="geometry" />
        </mxCell>
        <mxCell id="w1ihY2law0qxPt3G3yZp-19" value="&lt;span style=&quot;text-align: left;&quot;&gt;处方&amp;amp;订单的生命周期如何闭环？&lt;/span&gt;" style="shape=note2;boundedLbl=1;whiteSpace=wrap;html=1;size=25;verticalAlign=top;align=center;fontSize=16;" vertex="1" parent="1">
          <mxGeometry x="600" y="540" width="160" height="70" as="geometry" />
        </mxCell>
      </root>
    </mxGraphModel>
  </diagram>
</mxfile>
